<mxfile host="app.diagrams.net" modified="2021-10-22T11:51:27.149Z" agent="5.0 (Windows NT 10.0; WOW64) AppleWebKit/537.36 (KHTML, like Gecko) Chrome/94.0.4606.104 Safari/537.36" etag="Ur9VU5VjfUGVBSUsI3oG" version="15.5.8" type="github">
  <diagram id="TeV0N_XcdjRH2W5U-CbK" name="Page-1">
    <mxGraphModel dx="678" dy="445" grid="1" gridSize="10" guides="1" tooltips="1" connect="1" arrows="1" fold="1" page="0" pageScale="1" pageWidth="850" pageHeight="1100" math="0" shadow="0">
      <root>
        <mxCell id="0" />
        <mxCell id="1" parent="0" />
        <mxCell id="P6xec4ta4unkleBQ9jB0-1" value="" style="verticalLabelPosition=bottom;dashed=0;shadow=0;html=1;align=center;verticalAlign=top;shape=mxgraph.cabinets.cabinet;hasStand=1;hachureGap=4;pointerEvents=0;fontFamily=Architects Daughter;fontSource=https%3A%2F%2Ffonts.googleapis.com%2Fcss%3Ffamily%3DArchitects%2BDaughter;fontSize=20;" parent="1" vertex="1">
          <mxGeometry x="75" y="81" width="246" height="500" as="geometry" />
        </mxCell>
        <mxCell id="isz5vijHFb3tUHXIVNCX-17" value="" style="verticalLabelPosition=bottom;dashed=0;shadow=0;html=1;align=center;verticalAlign=top;shape=mxgraph.cabinets.din_rail;" parent="1" vertex="1">
          <mxGeometry x="90" y="210" width="216" height="25" as="geometry" />
        </mxCell>
        <mxCell id="isz5vijHFb3tUHXIVNCX-1" value="" style="verticalLabelPosition=bottom;dashed=0;shadow=0;html=1;align=center;verticalAlign=top;shape=mxgraph.cabinets.din_rail;" parent="1" vertex="1">
          <mxGeometry x="90" y="130" width="216" height="25" as="geometry" />
        </mxCell>
        <mxCell id="P6xec4ta4unkleBQ9jB0-2" value="" style="verticalLabelPosition=bottom;dashed=0;shadow=0;html=1;align=center;verticalAlign=top;shape=mxgraph.cabinets.cb_1p;hachureGap=4;pointerEvents=0;fontFamily=Architects Daughter;fontSource=https%3A%2F%2Ffonts.googleapis.com%2Fcss%3Ffamily%3DArchitects%2BDaughter;fontSize=20;" parent="1" vertex="1">
          <mxGeometry x="161.25" y="197.5" width="9" height="50" as="geometry" />
        </mxCell>
        <mxCell id="P6xec4ta4unkleBQ9jB0-3" value="" style="verticalLabelPosition=bottom;dashed=0;shadow=0;html=1;align=center;verticalAlign=top;shape=mxgraph.cabinets.cb_1p;hachureGap=4;pointerEvents=0;fontFamily=Architects Daughter;fontSource=https%3A%2F%2Ffonts.googleapis.com%2Fcss%3Ffamily%3DArchitects%2BDaughter;fontSize=20;" parent="1" vertex="1">
          <mxGeometry x="170.25" y="197.5" width="9" height="50" as="geometry" />
        </mxCell>
        <mxCell id="P6xec4ta4unkleBQ9jB0-4" value="" style="verticalLabelPosition=bottom;dashed=0;shadow=0;html=1;align=center;verticalAlign=top;shape=mxgraph.cabinets.cb_1p;hachureGap=4;pointerEvents=0;fontFamily=Architects Daughter;fontSource=https%3A%2F%2Ffonts.googleapis.com%2Fcss%3Ffamily%3DArchitects%2BDaughter;fontSize=20;" parent="1" vertex="1">
          <mxGeometry x="179.25" y="197.5" width="9" height="50" as="geometry" />
        </mxCell>
        <mxCell id="P6xec4ta4unkleBQ9jB0-5" value="" style="verticalLabelPosition=bottom;dashed=0;shadow=0;html=1;align=center;verticalAlign=top;shape=mxgraph.cabinets.cb_1p;hachureGap=4;pointerEvents=0;fontFamily=Architects Daughter;fontSource=https%3A%2F%2Ffonts.googleapis.com%2Fcss%3Ffamily%3DArchitects%2BDaughter;fontSize=20;" parent="1" vertex="1">
          <mxGeometry x="188.25" y="197.5" width="9" height="50" as="geometry" />
        </mxCell>
        <mxCell id="P6xec4ta4unkleBQ9jB0-6" value="" style="verticalLabelPosition=bottom;dashed=0;shadow=0;html=1;align=center;verticalAlign=top;shape=mxgraph.cabinets.cb_1p;hachureGap=4;pointerEvents=0;fontFamily=Architects Daughter;fontSource=https%3A%2F%2Ffonts.googleapis.com%2Fcss%3Ffamily%3DArchitects%2BDaughter;fontSize=20;" parent="1" vertex="1">
          <mxGeometry x="197.25" y="197.5" width="9" height="50" as="geometry" />
        </mxCell>
        <mxCell id="P6xec4ta4unkleBQ9jB0-7" value="" style="verticalLabelPosition=bottom;dashed=0;shadow=0;html=1;align=center;verticalAlign=top;shape=mxgraph.cabinets.cb_1p;hachureGap=4;pointerEvents=0;fontFamily=Architects Daughter;fontSource=https%3A%2F%2Ffonts.googleapis.com%2Fcss%3Ffamily%3DArchitects%2BDaughter;fontSize=20;" parent="1" vertex="1">
          <mxGeometry x="206.25" y="197.5" width="9" height="50" as="geometry" />
        </mxCell>
        <mxCell id="P6xec4ta4unkleBQ9jB0-8" value="" style="verticalLabelPosition=bottom;dashed=0;shadow=0;html=1;align=center;verticalAlign=top;shape=mxgraph.cabinets.cb_1p;hachureGap=4;pointerEvents=0;fontFamily=Architects Daughter;fontSource=https%3A%2F%2Ffonts.googleapis.com%2Fcss%3Ffamily%3DArchitects%2BDaughter;fontSize=20;" parent="1" vertex="1">
          <mxGeometry x="215.25" y="197.5" width="9" height="50" as="geometry" />
        </mxCell>
        <mxCell id="P6xec4ta4unkleBQ9jB0-9" value="" style="verticalLabelPosition=bottom;dashed=0;shadow=0;html=1;align=center;verticalAlign=top;shape=mxgraph.cabinets.cb_1p;hachureGap=4;pointerEvents=0;fontFamily=Architects Daughter;fontSource=https%3A%2F%2Ffonts.googleapis.com%2Fcss%3Ffamily%3DArchitects%2BDaughter;fontSize=20;" parent="1" vertex="1">
          <mxGeometry x="224.25" y="197.5" width="9" height="50" as="geometry" />
        </mxCell>
        <mxCell id="P6xec4ta4unkleBQ9jB0-10" value="" style="verticalLabelPosition=bottom;dashed=0;shadow=0;html=1;align=center;verticalAlign=top;shape=mxgraph.cabinets.cb_1p;hachureGap=4;pointerEvents=0;fontFamily=Architects Daughter;fontSource=https%3A%2F%2Ffonts.googleapis.com%2Fcss%3Ffamily%3DArchitects%2BDaughter;fontSize=20;" parent="1" vertex="1">
          <mxGeometry x="233.25" y="197.5" width="9" height="50" as="geometry" />
        </mxCell>
        <mxCell id="P6xec4ta4unkleBQ9jB0-11" value="" style="verticalLabelPosition=bottom;dashed=0;shadow=0;html=1;align=center;verticalAlign=top;shape=mxgraph.cabinets.cb_1p;hachureGap=4;pointerEvents=0;fontFamily=Architects Daughter;fontSource=https%3A%2F%2Ffonts.googleapis.com%2Fcss%3Ffamily%3DArchitects%2BDaughter;fontSize=20;" parent="1" vertex="1">
          <mxGeometry x="242.25" y="197.5" width="9" height="50" as="geometry" />
        </mxCell>
        <mxCell id="isz5vijHFb3tUHXIVNCX-2" value="" style="verticalLabelPosition=bottom;dashed=0;shadow=0;html=1;align=center;verticalAlign=top;shape=mxgraph.cabinets.cb_1p;hachureGap=4;pointerEvents=0;fontFamily=Architects Daughter;fontSource=https%3A%2F%2Ffonts.googleapis.com%2Fcss%3Ffamily%3DArchitects%2BDaughter;fontSize=20;" parent="1" vertex="1">
          <mxGeometry x="251.25" y="197.5" width="9" height="50" as="geometry" />
        </mxCell>
        <mxCell id="isz5vijHFb3tUHXIVNCX-3" value="" style="verticalLabelPosition=bottom;dashed=0;shadow=0;html=1;align=center;verticalAlign=top;shape=mxgraph.cabinets.cb_1p;hachureGap=4;pointerEvents=0;fontFamily=Architects Daughter;fontSource=https%3A%2F%2Ffonts.googleapis.com%2Fcss%3Ffamily%3DArchitects%2BDaughter;fontSize=20;fillColor=#60a917;fontColor=#ffffff;strokeColor=#2D7600;" parent="1" vertex="1">
          <mxGeometry x="296.5" y="197.5" width="9" height="50" as="geometry" />
        </mxCell>
        <mxCell id="isz5vijHFb3tUHXIVNCX-4" value="" style="verticalLabelPosition=bottom;dashed=0;shadow=0;html=1;align=center;verticalAlign=top;shape=mxgraph.cabinets.cb_1p;hachureGap=4;pointerEvents=0;fontFamily=Architects Daughter;fontSource=https%3A%2F%2Ffonts.googleapis.com%2Fcss%3Ffamily%3DArchitects%2BDaughter;fontSize=20;" parent="1" vertex="1">
          <mxGeometry x="269.25" y="197.5" width="9" height="50" as="geometry" />
        </mxCell>
        <mxCell id="isz5vijHFb3tUHXIVNCX-5" value="" style="verticalLabelPosition=bottom;dashed=0;shadow=0;html=1;align=center;verticalAlign=top;shape=mxgraph.cabinets.cb_1p;hachureGap=4;pointerEvents=0;fontFamily=Architects Daughter;fontSource=https%3A%2F%2Ffonts.googleapis.com%2Fcss%3Ffamily%3DArchitects%2BDaughter;fontSize=20;" parent="1" vertex="1">
          <mxGeometry x="278.25" y="197.5" width="9" height="50" as="geometry" />
        </mxCell>
        <mxCell id="isz5vijHFb3tUHXIVNCX-7" value="" style="verticalLabelPosition=bottom;dashed=0;shadow=0;html=1;align=center;verticalAlign=top;shape=mxgraph.cabinets.cb_1p;hachureGap=4;pointerEvents=0;fontFamily=Architects Daughter;fontSource=https%3A%2F%2Ffonts.googleapis.com%2Fcss%3Ffamily%3DArchitects%2BDaughter;fontSize=20;" parent="1" vertex="1">
          <mxGeometry x="287.5" y="197.5" width="9" height="50" as="geometry" />
        </mxCell>
        <mxCell id="isz5vijHFb3tUHXIVNCX-8" value="" style="verticalLabelPosition=bottom;dashed=0;shadow=0;html=1;align=center;verticalAlign=top;shape=mxgraph.cabinets.cb_1p;hachureGap=4;pointerEvents=0;fontFamily=Architects Daughter;fontSource=https%3A%2F%2Ffonts.googleapis.com%2Fcss%3Ffamily%3DArchitects%2BDaughter;fontSize=20;" parent="1" vertex="1">
          <mxGeometry x="89.75" y="197.5" width="9" height="50" as="geometry" />
        </mxCell>
        <mxCell id="isz5vijHFb3tUHXIVNCX-9" value="" style="verticalLabelPosition=bottom;dashed=0;shadow=0;html=1;align=center;verticalAlign=top;shape=mxgraph.cabinets.cb_1p;hachureGap=4;pointerEvents=0;fontFamily=Architects Daughter;fontSource=https%3A%2F%2Ffonts.googleapis.com%2Fcss%3Ffamily%3DArchitects%2BDaughter;fontSize=20;" parent="1" vertex="1">
          <mxGeometry x="98.75" y="197.5" width="9" height="50" as="geometry" />
        </mxCell>
        <mxCell id="isz5vijHFb3tUHXIVNCX-10" value="" style="verticalLabelPosition=bottom;dashed=0;shadow=0;html=1;align=center;verticalAlign=top;shape=mxgraph.cabinets.cb_1p;hachureGap=4;pointerEvents=0;fontFamily=Architects Daughter;fontSource=https%3A%2F%2Ffonts.googleapis.com%2Fcss%3Ffamily%3DArchitects%2BDaughter;fontSize=20;" parent="1" vertex="1">
          <mxGeometry x="107.75" y="197.5" width="9" height="50" as="geometry" />
        </mxCell>
        <mxCell id="isz5vijHFb3tUHXIVNCX-11" value="" style="verticalLabelPosition=bottom;dashed=0;shadow=0;html=1;align=center;verticalAlign=top;shape=mxgraph.cabinets.cb_1p;hachureGap=4;pointerEvents=0;fontFamily=Architects Daughter;fontSource=https%3A%2F%2Ffonts.googleapis.com%2Fcss%3Ffamily%3DArchitects%2BDaughter;fontSize=20;" parent="1" vertex="1">
          <mxGeometry x="116.75" y="197.5" width="9" height="50" as="geometry" />
        </mxCell>
        <mxCell id="isz5vijHFb3tUHXIVNCX-13" value="" style="verticalLabelPosition=bottom;dashed=0;shadow=0;html=1;align=center;verticalAlign=top;shape=mxgraph.cabinets.cb_1p;hachureGap=4;pointerEvents=0;fontFamily=Architects Daughter;fontSource=https%3A%2F%2Ffonts.googleapis.com%2Fcss%3Ffamily%3DArchitects%2BDaughter;fontSize=20;" parent="1" vertex="1">
          <mxGeometry x="126.5" y="197.5" width="9" height="50" as="geometry" />
        </mxCell>
        <mxCell id="isz5vijHFb3tUHXIVNCX-14" value="" style="verticalLabelPosition=bottom;dashed=0;shadow=0;html=1;align=center;verticalAlign=top;shape=mxgraph.cabinets.cb_1p;hachureGap=4;pointerEvents=0;fontFamily=Architects Daughter;fontSource=https%3A%2F%2Ffonts.googleapis.com%2Fcss%3Ffamily%3DArchitects%2BDaughter;fontSize=20;" parent="1" vertex="1">
          <mxGeometry x="133.75" y="197.5" width="9" height="50" as="geometry" />
        </mxCell>
        <mxCell id="isz5vijHFb3tUHXIVNCX-15" value="" style="verticalLabelPosition=bottom;dashed=0;shadow=0;html=1;align=center;verticalAlign=top;shape=mxgraph.cabinets.cb_1p;hachureGap=4;pointerEvents=0;fontFamily=Architects Daughter;fontSource=https%3A%2F%2Ffonts.googleapis.com%2Fcss%3Ffamily%3DArchitects%2BDaughter;fontSize=20;" parent="1" vertex="1">
          <mxGeometry x="142.75" y="197.5" width="9" height="50" as="geometry" />
        </mxCell>
        <mxCell id="isz5vijHFb3tUHXIVNCX-18" value="" style="verticalLabelPosition=bottom;dashed=0;shadow=0;html=1;align=center;verticalAlign=top;shape=mxgraph.cabinets.din_rail;" parent="1" vertex="1">
          <mxGeometry x="90" y="300" width="216" height="25" as="geometry" />
        </mxCell>
        <mxCell id="isz5vijHFb3tUHXIVNCX-19" value="" style="verticalLabelPosition=bottom;dashed=0;shadow=0;html=1;align=center;verticalAlign=top;shape=mxgraph.cabinets.din_rail;" parent="1" vertex="1">
          <mxGeometry x="90" y="378" width="216" height="25" as="geometry" />
        </mxCell>
        <mxCell id="isz5vijHFb3tUHXIVNCX-20" value="" style="verticalLabelPosition=bottom;dashed=0;shadow=0;html=1;align=center;verticalAlign=top;shape=mxgraph.cabinets.din_rail;" parent="1" vertex="1">
          <mxGeometry x="90.5" y="460" width="216" height="25" as="geometry" />
        </mxCell>
        <mxCell id="isz5vijHFb3tUHXIVNCX-21" value="" style="verticalLabelPosition=bottom;dashed=0;shadow=0;html=1;align=center;verticalAlign=top;shape=mxgraph.cabinets.residual_current_device_4p;" parent="1" vertex="1">
          <mxGeometry x="154.5" y="286.5" width="36" height="50" as="geometry" />
        </mxCell>
        <mxCell id="96s5dku--IcyRKQgOa-p-1" value="" style="verticalLabelPosition=bottom;dashed=0;shadow=0;html=1;align=center;verticalAlign=top;shape=mxgraph.cabinets.residual_current_device_4p;" vertex="1" parent="1">
          <mxGeometry x="118.5" y="286.5" width="36" height="50" as="geometry" />
        </mxCell>
        <mxCell id="96s5dku--IcyRKQgOa-p-30" value="" style="verticalLabelPosition=bottom;dashed=0;shadow=0;html=1;align=center;verticalAlign=top;shape=mxgraph.cabinets.residual_current_device_4p;" vertex="1" parent="1">
          <mxGeometry x="190.5" y="286.5" width="36" height="50" as="geometry" />
        </mxCell>
        <mxCell id="96s5dku--IcyRKQgOa-p-31" value="" style="verticalLabelPosition=bottom;dashed=0;shadow=0;html=1;align=center;verticalAlign=top;shape=mxgraph.cabinets.residual_current_device_4p;" vertex="1" parent="1">
          <mxGeometry x="226.5" y="287" width="36" height="50" as="geometry" />
        </mxCell>
        <mxCell id="96s5dku--IcyRKQgOa-p-32" value="" style="verticalLabelPosition=bottom;dashed=0;shadow=0;html=1;align=center;verticalAlign=top;shape=mxgraph.cabinets.cb_3p;fillColor=#f8cecc;strokeColor=#b85450;" vertex="1" parent="1">
          <mxGeometry x="117" y="365.5" width="27" height="50" as="geometry" />
        </mxCell>
        <mxCell id="96s5dku--IcyRKQgOa-p-282" value="" style="verticalLabelPosition=bottom;dashed=0;shadow=0;html=1;align=center;verticalAlign=top;shape=mxgraph.cabinets.cb_4p;fillColor=#d80073;strokeColor=#A50040;fontColor=#ffffff;" vertex="1" parent="1">
          <mxGeometry x="207" y="365.5" width="36" height="50" as="geometry" />
        </mxCell>
        <mxCell id="96s5dku--IcyRKQgOa-p-283" value="" style="verticalLabelPosition=bottom;dashed=0;shadow=0;html=1;align=center;verticalAlign=top;shape=mxgraph.cabinets.cb_4p;fillColor=#d80073;strokeColor=#A50040;fontColor=#ffffff;" vertex="1" parent="1">
          <mxGeometry x="243" y="365.5" width="36" height="50" as="geometry" />
        </mxCell>
        <mxCell id="96s5dku--IcyRKQgOa-p-288" value="" style="verticalLabelPosition=bottom;dashed=0;shadow=0;html=1;align=center;verticalAlign=top;shape=mxgraph.cabinets.terminal_4_6mm2_x10;fillColor=#1ba1e2;fontColor=#ffffff;strokeColor=#006EAF;" vertex="1" parent="1">
          <mxGeometry x="90" y="127.5" width="42.5" height="30" as="geometry" />
        </mxCell>
        <mxCell id="96s5dku--IcyRKQgOa-p-294" value="" style="verticalLabelPosition=bottom;dashed=0;shadow=0;html=1;align=center;verticalAlign=top;shape=mxgraph.cabinets.cb_1p;hachureGap=4;pointerEvents=0;fontFamily=Architects Daughter;fontSource=https%3A%2F%2Ffonts.googleapis.com%2Fcss%3Ffamily%3DArchitects%2BDaughter;fontSize=20;" vertex="1" parent="1">
          <mxGeometry x="152.25" y="197.5" width="9" height="50" as="geometry" />
        </mxCell>
        <mxCell id="96s5dku--IcyRKQgOa-p-297" value="" style="verticalLabelPosition=bottom;dashed=0;shadow=0;html=1;align=center;verticalAlign=top;shape=mxgraph.cabinets.cb_3p;fillColor=#fff2cc;strokeColor=#d6b656;" vertex="1" parent="1">
          <mxGeometry x="180" y="365.5" width="27" height="50" as="geometry" />
        </mxCell>
        <mxCell id="96s5dku--IcyRKQgOa-p-298" value="" style="verticalLabelPosition=bottom;dashed=0;shadow=0;html=1;align=center;verticalAlign=top;shape=mxgraph.cabinets.cb_3p;fillColor=#d5e8d4;strokeColor=#82b366;" vertex="1" parent="1">
          <mxGeometry x="90.5" y="286.5" width="27" height="50" as="geometry" />
        </mxCell>
        <mxCell id="96s5dku--IcyRKQgOa-p-299" value="" style="verticalLabelPosition=bottom;dashed=0;shadow=0;html=1;align=center;verticalAlign=top;shape=mxgraph.cabinets.cb_3p;fillColor=#dae8fc;strokeColor=#6c8ebf;" vertex="1" parent="1">
          <mxGeometry x="90" y="365.5" width="27" height="50" as="geometry" />
        </mxCell>
        <mxCell id="96s5dku--IcyRKQgOa-p-300" value="" style="verticalLabelPosition=bottom;dashed=0;shadow=0;html=1;align=center;verticalAlign=top;shape=mxgraph.cabinets.cb_1p;hachureGap=4;pointerEvents=0;fontFamily=Architects Daughter;fontSource=https%3A%2F%2Ffonts.googleapis.com%2Fcss%3Ffamily%3DArchitects%2BDaughter;fontSize=20;fillColor=#f5f5f5;fontColor=#333333;strokeColor=#666666;" vertex="1" parent="1">
          <mxGeometry x="144" y="365.5" width="9" height="50" as="geometry" />
        </mxCell>
        <mxCell id="96s5dku--IcyRKQgOa-p-301" value="" style="verticalLabelPosition=bottom;dashed=0;shadow=0;html=1;align=center;verticalAlign=top;shape=mxgraph.cabinets.cb_3p;fillColor=#f5f5f5;strokeColor=#666666;fontColor=#333333;" vertex="1" parent="1">
          <mxGeometry x="153" y="365.5" width="27" height="50" as="geometry" />
        </mxCell>
        <mxCell id="96s5dku--IcyRKQgOa-p-302" value="" style="verticalLabelPosition=bottom;dashed=0;shadow=0;html=1;align=center;verticalAlign=top;shape=mxgraph.cabinets.terminal_4_6mm2_x10;fillColor=#1ba1e2;fontColor=#ffffff;strokeColor=#006EAF;" vertex="1" parent="1">
          <mxGeometry x="133" y="127.5" width="42.5" height="30" as="geometry" />
        </mxCell>
        <mxCell id="96s5dku--IcyRKQgOa-p-303" value="" style="verticalLabelPosition=bottom;dashed=0;shadow=0;html=1;align=center;verticalAlign=top;shape=mxgraph.cabinets.cb_1p;hachureGap=4;pointerEvents=0;fontFamily=Architects Daughter;fontSource=https%3A%2F%2Ffonts.googleapis.com%2Fcss%3Ffamily%3DArchitects%2BDaughter;fontSize=20;" vertex="1" parent="1">
          <mxGeometry x="260.25" y="197.5" width="9" height="50" as="geometry" />
        </mxCell>
        <mxCell id="96s5dku--IcyRKQgOa-p-304" value="" style="verticalLabelPosition=bottom;dashed=0;shadow=0;html=1;align=center;verticalAlign=top;shape=mxgraph.cabinets.cb_1p;hachureGap=4;pointerEvents=0;fontFamily=Architects Daughter;fontSource=https%3A%2F%2Ffonts.googleapis.com%2Fcss%3Ffamily%3DArchitects%2BDaughter;fontSize=20;" vertex="1" parent="1">
          <mxGeometry x="269.25" y="197.5" width="9" height="50" as="geometry" />
        </mxCell>
        <mxCell id="96s5dku--IcyRKQgOa-p-305" value="" style="verticalLabelPosition=bottom;dashed=0;shadow=0;html=1;align=center;verticalAlign=top;shape=mxgraph.cabinets.terminal_4_6mm2_x10;fillColor=#1ba1e2;fontColor=#ffffff;strokeColor=#006EAF;" vertex="1" parent="1">
          <mxGeometry x="175.75" y="127.5" width="42.5" height="30" as="geometry" />
        </mxCell>
        <mxCell id="96s5dku--IcyRKQgOa-p-307" value="Blaszak" style="text;strokeColor=#82b366;fillColor=#d5e8d4;align=left;verticalAlign=middle;spacingLeft=4;spacingRight=4;overflow=hidden;points=[[0,0.5],[1,0.5]];portConstraint=eastwest;rotatable=0;" vertex="1" parent="1">
          <mxGeometry x="351" y="235" width="80" height="30" as="geometry" />
        </mxCell>
        <mxCell id="96s5dku--IcyRKQgOa-p-308" value="Siła" style="text;strokeColor=#d6b656;fillColor=#fff2cc;align=left;verticalAlign=middle;spacingLeft=4;spacingRight=4;overflow=hidden;points=[[0,0.5],[1,0.5]];portConstraint=eastwest;rotatable=0;" vertex="1" parent="1">
          <mxGeometry x="351" y="265" width="80" height="30" as="geometry" />
        </mxCell>
        <mxCell id="96s5dku--IcyRKQgOa-p-309" value="Indukcja" style="text;strokeColor=#b85450;fillColor=#f8cecc;align=left;verticalAlign=middle;spacingLeft=4;spacingRight=4;overflow=hidden;points=[[0,0.5],[1,0.5]];portConstraint=eastwest;rotatable=0;" vertex="1" parent="1">
          <mxGeometry x="351" y="295" width="80" height="30" as="geometry" />
        </mxCell>
        <mxCell id="96s5dku--IcyRKQgOa-p-310" value="Róznicówka do bramy" style="text;strokeColor=#2D7600;fillColor=#60a917;align=left;verticalAlign=middle;spacingLeft=4;spacingRight=4;overflow=hidden;points=[[0,0.5],[1,0.5]];portConstraint=eastwest;rotatable=0;fontColor=#ffffff;" vertex="1" parent="1">
          <mxGeometry x="351" y="350" width="139" height="30" as="geometry" />
        </mxCell>
        <mxCell id="96s5dku--IcyRKQgOa-p-311" value="Kontrola faz i różnicówka do tego" style="text;strokeColor=#666666;fillColor=#f5f5f5;align=left;verticalAlign=middle;spacingLeft=4;spacingRight=4;overflow=hidden;points=[[0,0.5],[1,0.5]];portConstraint=eastwest;rotatable=0;fontColor=#333333;" vertex="1" parent="1">
          <mxGeometry x="351" y="325" width="189" height="25" as="geometry" />
        </mxCell>
        <mxCell id="96s5dku--IcyRKQgOa-p-313" value="S-ki na obwody i różnicówki" style="text;align=left;verticalAlign=middle;spacingLeft=4;spacingRight=4;overflow=hidden;points=[[0,0.5],[1,0.5]];portConstraint=eastwest;rotatable=0;" vertex="1" parent="1">
          <mxGeometry x="351" y="125" width="169" height="30" as="geometry" />
        </mxCell>
        <mxCell id="96s5dku--IcyRKQgOa-p-314" value="Złączki: łącznik oprawa/roleta" style="text;align=left;verticalAlign=middle;spacingLeft=4;spacingRight=4;overflow=hidden;points=[[0,0.5],[1,0.5]];portConstraint=eastwest;rotatable=0;fillColor=#1ba1e2;fontColor=#ffffff;strokeColor=#006EAF;" vertex="1" parent="1">
          <mxGeometry x="351" y="95" width="169" height="30" as="geometry" />
        </mxCell>
        <mxCell id="96s5dku--IcyRKQgOa-p-335" value="" style="verticalLabelPosition=bottom;dashed=0;shadow=0;html=1;align=center;verticalAlign=top;shape=mxgraph.cabinets.terminal_4_6mm2_x10;fillColor=#1ba1e2;fontColor=#ffffff;strokeColor=#006EAF;" vertex="1" parent="1">
          <mxGeometry x="218.25" y="127.5" width="42.5" height="30" as="geometry" />
        </mxCell>
        <mxCell id="96s5dku--IcyRKQgOa-p-336" value="" style="verticalLabelPosition=bottom;dashed=0;shadow=0;html=1;align=center;verticalAlign=top;shape=mxgraph.cabinets.terminal_4_6mm2_x10;fillColor=#1ba1e2;fontColor=#ffffff;strokeColor=#006EAF;" vertex="1" parent="1">
          <mxGeometry x="261.5" y="127.5" width="42.5" height="30" as="geometry" />
        </mxCell>
        <mxCell id="96s5dku--IcyRKQgOa-p-337" value="" style="verticalLabelPosition=bottom;dashed=0;shadow=0;html=1;align=center;verticalAlign=top;shape=mxgraph.cabinets.terminal_4_6mm2_x10;fillColor=#1ba1e2;fontColor=#ffffff;strokeColor=#006EAF;" vertex="1" parent="1">
          <mxGeometry x="263.5" y="296.5" width="42.5" height="30" as="geometry" />
        </mxCell>
        <mxCell id="96s5dku--IcyRKQgOa-p-338" value="" style="verticalLabelPosition=bottom;dashed=0;shadow=0;html=1;align=center;verticalAlign=top;shape=mxgraph.cabinets.cabinet;hasStand=1;hachureGap=4;pointerEvents=0;fontFamily=Architects Daughter;fontSource=https%3A%2F%2Ffonts.googleapis.com%2Fcss%3Ffamily%3DArchitects%2BDaughter;fontSize=20;" vertex="1" parent="1">
          <mxGeometry x="600" y="80" width="246" height="500" as="geometry" />
        </mxCell>
        <mxCell id="96s5dku--IcyRKQgOa-p-339" value="" style="verticalLabelPosition=bottom;dashed=0;shadow=0;html=1;align=center;verticalAlign=top;shape=mxgraph.cabinets.din_rail;" vertex="1" parent="1">
          <mxGeometry x="615" y="210" width="216" height="25" as="geometry" />
        </mxCell>
        <mxCell id="96s5dku--IcyRKQgOa-p-340" value="" style="verticalLabelPosition=bottom;dashed=0;shadow=0;html=1;align=center;verticalAlign=top;shape=mxgraph.cabinets.din_rail;" vertex="1" parent="1">
          <mxGeometry x="615" y="130" width="216" height="25" as="geometry" />
        </mxCell>
        <mxCell id="96s5dku--IcyRKQgOa-p-341" value="" style="verticalLabelPosition=bottom;dashed=0;shadow=0;html=1;align=center;verticalAlign=top;shape=mxgraph.cabinets.cb_1p;hachureGap=4;pointerEvents=0;fontFamily=Architects Daughter;fontSource=https%3A%2F%2Ffonts.googleapis.com%2Fcss%3Ffamily%3DArchitects%2BDaughter;fontSize=20;" vertex="1" parent="1">
          <mxGeometry x="660" y="197.5" width="9" height="50" as="geometry" />
        </mxCell>
        <mxCell id="96s5dku--IcyRKQgOa-p-342" value="" style="verticalLabelPosition=bottom;dashed=0;shadow=0;html=1;align=center;verticalAlign=top;shape=mxgraph.cabinets.cb_1p;hachureGap=4;pointerEvents=0;fontFamily=Architects Daughter;fontSource=https%3A%2F%2Ffonts.googleapis.com%2Fcss%3Ffamily%3DArchitects%2BDaughter;fontSize=20;" vertex="1" parent="1">
          <mxGeometry x="669" y="197.5" width="9" height="50" as="geometry" />
        </mxCell>
        <mxCell id="96s5dku--IcyRKQgOa-p-343" value="" style="verticalLabelPosition=bottom;dashed=0;shadow=0;html=1;align=center;verticalAlign=top;shape=mxgraph.cabinets.cb_1p;hachureGap=4;pointerEvents=0;fontFamily=Architects Daughter;fontSource=https%3A%2F%2Ffonts.googleapis.com%2Fcss%3Ffamily%3DArchitects%2BDaughter;fontSize=20;" vertex="1" parent="1">
          <mxGeometry x="678" y="197.5" width="9" height="50" as="geometry" />
        </mxCell>
        <mxCell id="96s5dku--IcyRKQgOa-p-344" value="" style="verticalLabelPosition=bottom;dashed=0;shadow=0;html=1;align=center;verticalAlign=top;shape=mxgraph.cabinets.cb_1p;hachureGap=4;pointerEvents=0;fontFamily=Architects Daughter;fontSource=https%3A%2F%2Ffonts.googleapis.com%2Fcss%3Ffamily%3DArchitects%2BDaughter;fontSize=20;" vertex="1" parent="1">
          <mxGeometry x="687" y="197.5" width="9" height="50" as="geometry" />
        </mxCell>
        <mxCell id="96s5dku--IcyRKQgOa-p-345" value="" style="verticalLabelPosition=bottom;dashed=0;shadow=0;html=1;align=center;verticalAlign=top;shape=mxgraph.cabinets.cb_1p;hachureGap=4;pointerEvents=0;fontFamily=Architects Daughter;fontSource=https%3A%2F%2Ffonts.googleapis.com%2Fcss%3Ffamily%3DArchitects%2BDaughter;fontSize=20;" vertex="1" parent="1">
          <mxGeometry x="696" y="197.5" width="9" height="50" as="geometry" />
        </mxCell>
        <mxCell id="96s5dku--IcyRKQgOa-p-346" value="" style="verticalLabelPosition=bottom;dashed=0;shadow=0;html=1;align=center;verticalAlign=top;shape=mxgraph.cabinets.cb_1p;hachureGap=4;pointerEvents=0;fontFamily=Architects Daughter;fontSource=https%3A%2F%2Ffonts.googleapis.com%2Fcss%3Ffamily%3DArchitects%2BDaughter;fontSize=20;" vertex="1" parent="1">
          <mxGeometry x="705" y="197.5" width="9" height="50" as="geometry" />
        </mxCell>
        <mxCell id="96s5dku--IcyRKQgOa-p-347" value="" style="verticalLabelPosition=bottom;dashed=0;shadow=0;html=1;align=center;verticalAlign=top;shape=mxgraph.cabinets.cb_1p;hachureGap=4;pointerEvents=0;fontFamily=Architects Daughter;fontSource=https%3A%2F%2Ffonts.googleapis.com%2Fcss%3Ffamily%3DArchitects%2BDaughter;fontSize=20;" vertex="1" parent="1">
          <mxGeometry x="714" y="197.5" width="9" height="50" as="geometry" />
        </mxCell>
        <mxCell id="96s5dku--IcyRKQgOa-p-348" value="" style="verticalLabelPosition=bottom;dashed=0;shadow=0;html=1;align=center;verticalAlign=top;shape=mxgraph.cabinets.cb_1p;hachureGap=4;pointerEvents=0;fontFamily=Architects Daughter;fontSource=https%3A%2F%2Ffonts.googleapis.com%2Fcss%3Ffamily%3DArchitects%2BDaughter;fontSize=20;" vertex="1" parent="1">
          <mxGeometry x="723" y="197.5" width="9" height="50" as="geometry" />
        </mxCell>
        <mxCell id="96s5dku--IcyRKQgOa-p-349" value="" style="verticalLabelPosition=bottom;dashed=0;shadow=0;html=1;align=center;verticalAlign=top;shape=mxgraph.cabinets.cb_1p;hachureGap=4;pointerEvents=0;fontFamily=Architects Daughter;fontSource=https%3A%2F%2Ffonts.googleapis.com%2Fcss%3Ffamily%3DArchitects%2BDaughter;fontSize=20;" vertex="1" parent="1">
          <mxGeometry x="732" y="197.5" width="9" height="50" as="geometry" />
        </mxCell>
        <mxCell id="96s5dku--IcyRKQgOa-p-350" value="" style="verticalLabelPosition=bottom;dashed=0;shadow=0;html=1;align=center;verticalAlign=top;shape=mxgraph.cabinets.cb_1p;hachureGap=4;pointerEvents=0;fontFamily=Architects Daughter;fontSource=https%3A%2F%2Ffonts.googleapis.com%2Fcss%3Ffamily%3DArchitects%2BDaughter;fontSize=20;" vertex="1" parent="1">
          <mxGeometry x="741" y="197.5" width="9" height="50" as="geometry" />
        </mxCell>
        <mxCell id="96s5dku--IcyRKQgOa-p-351" value="" style="verticalLabelPosition=bottom;dashed=0;shadow=0;html=1;align=center;verticalAlign=top;shape=mxgraph.cabinets.cb_1p;hachureGap=4;pointerEvents=0;fontFamily=Architects Daughter;fontSource=https%3A%2F%2Ffonts.googleapis.com%2Fcss%3Ffamily%3DArchitects%2BDaughter;fontSize=20;" vertex="1" parent="1">
          <mxGeometry x="750" y="197.5" width="9" height="50" as="geometry" />
        </mxCell>
        <mxCell id="96s5dku--IcyRKQgOa-p-352" value="" style="verticalLabelPosition=bottom;dashed=0;shadow=0;html=1;align=center;verticalAlign=top;shape=mxgraph.cabinets.cb_1p;hachureGap=4;pointerEvents=0;fontFamily=Architects Daughter;fontSource=https%3A%2F%2Ffonts.googleapis.com%2Fcss%3Ffamily%3DArchitects%2BDaughter;fontSize=20;fillColor=#60a917;fontColor=#ffffff;strokeColor=#2D7600;" vertex="1" parent="1">
          <mxGeometry x="795.25" y="197.5" width="9" height="50" as="geometry" />
        </mxCell>
        <mxCell id="96s5dku--IcyRKQgOa-p-353" value="" style="verticalLabelPosition=bottom;dashed=0;shadow=0;html=1;align=center;verticalAlign=top;shape=mxgraph.cabinets.cb_1p;hachureGap=4;pointerEvents=0;fontFamily=Architects Daughter;fontSource=https%3A%2F%2Ffonts.googleapis.com%2Fcss%3Ffamily%3DArchitects%2BDaughter;fontSize=20;" vertex="1" parent="1">
          <mxGeometry x="768" y="197.5" width="9" height="50" as="geometry" />
        </mxCell>
        <mxCell id="96s5dku--IcyRKQgOa-p-354" value="" style="verticalLabelPosition=bottom;dashed=0;shadow=0;html=1;align=center;verticalAlign=top;shape=mxgraph.cabinets.cb_1p;hachureGap=4;pointerEvents=0;fontFamily=Architects Daughter;fontSource=https%3A%2F%2Ffonts.googleapis.com%2Fcss%3Ffamily%3DArchitects%2BDaughter;fontSize=20;" vertex="1" parent="1">
          <mxGeometry x="777" y="197.5" width="9" height="50" as="geometry" />
        </mxCell>
        <mxCell id="96s5dku--IcyRKQgOa-p-355" value="" style="verticalLabelPosition=bottom;dashed=0;shadow=0;html=1;align=center;verticalAlign=top;shape=mxgraph.cabinets.cb_1p;hachureGap=4;pointerEvents=0;fontFamily=Architects Daughter;fontSource=https%3A%2F%2Ffonts.googleapis.com%2Fcss%3Ffamily%3DArchitects%2BDaughter;fontSize=20;" vertex="1" parent="1">
          <mxGeometry x="786.25" y="197.5" width="9" height="50" as="geometry" />
        </mxCell>
        <mxCell id="96s5dku--IcyRKQgOa-p-356" value="" style="verticalLabelPosition=bottom;dashed=0;shadow=0;html=1;align=center;verticalAlign=top;shape=mxgraph.cabinets.cb_1p;hachureGap=4;pointerEvents=0;fontFamily=Architects Daughter;fontSource=https%3A%2F%2Ffonts.googleapis.com%2Fcss%3Ffamily%3DArchitects%2BDaughter;fontSize=20;" vertex="1" parent="1">
          <mxGeometry x="803.25" y="117.5" width="9" height="50" as="geometry" />
        </mxCell>
        <mxCell id="96s5dku--IcyRKQgOa-p-357" value="" style="verticalLabelPosition=bottom;dashed=0;shadow=0;html=1;align=center;verticalAlign=top;shape=mxgraph.cabinets.cb_1p;hachureGap=4;pointerEvents=0;fontFamily=Architects Daughter;fontSource=https%3A%2F%2Ffonts.googleapis.com%2Fcss%3Ffamily%3DArchitects%2BDaughter;fontSize=20;" vertex="1" parent="1">
          <mxGeometry x="812.25" y="117.5" width="9" height="50" as="geometry" />
        </mxCell>
        <mxCell id="96s5dku--IcyRKQgOa-p-358" value="" style="verticalLabelPosition=bottom;dashed=0;shadow=0;html=1;align=center;verticalAlign=top;shape=mxgraph.cabinets.cb_1p;hachureGap=4;pointerEvents=0;fontFamily=Architects Daughter;fontSource=https%3A%2F%2Ffonts.googleapis.com%2Fcss%3Ffamily%3DArchitects%2BDaughter;fontSize=20;" vertex="1" parent="1">
          <mxGeometry x="821.5" y="117.5" width="9" height="50" as="geometry" />
        </mxCell>
        <mxCell id="96s5dku--IcyRKQgOa-p-359" value="" style="verticalLabelPosition=bottom;dashed=0;shadow=0;html=1;align=center;verticalAlign=top;shape=mxgraph.cabinets.cb_1p;hachureGap=4;pointerEvents=0;fontFamily=Architects Daughter;fontSource=https%3A%2F%2Ffonts.googleapis.com%2Fcss%3Ffamily%3DArchitects%2BDaughter;fontSize=20;" vertex="1" parent="1">
          <mxGeometry x="615.5" y="197.5" width="9" height="50" as="geometry" />
        </mxCell>
        <mxCell id="96s5dku--IcyRKQgOa-p-360" value="" style="verticalLabelPosition=bottom;dashed=0;shadow=0;html=1;align=center;verticalAlign=top;shape=mxgraph.cabinets.cb_1p;hachureGap=4;pointerEvents=0;fontFamily=Architects Daughter;fontSource=https%3A%2F%2Ffonts.googleapis.com%2Fcss%3Ffamily%3DArchitects%2BDaughter;fontSize=20;" vertex="1" parent="1">
          <mxGeometry x="624.25" y="197.5" width="9" height="50" as="geometry" />
        </mxCell>
        <mxCell id="96s5dku--IcyRKQgOa-p-361" value="" style="verticalLabelPosition=bottom;dashed=0;shadow=0;html=1;align=center;verticalAlign=top;shape=mxgraph.cabinets.cb_1p;hachureGap=4;pointerEvents=0;fontFamily=Architects Daughter;fontSource=https%3A%2F%2Ffonts.googleapis.com%2Fcss%3Ffamily%3DArchitects%2BDaughter;fontSize=20;" vertex="1" parent="1">
          <mxGeometry x="632.5" y="197.5" width="9" height="50" as="geometry" />
        </mxCell>
        <mxCell id="96s5dku--IcyRKQgOa-p-362" value="" style="verticalLabelPosition=bottom;dashed=0;shadow=0;html=1;align=center;verticalAlign=top;shape=mxgraph.cabinets.cb_1p;hachureGap=4;pointerEvents=0;fontFamily=Architects Daughter;fontSource=https%3A%2F%2Ffonts.googleapis.com%2Fcss%3Ffamily%3DArchitects%2BDaughter;fontSize=20;" vertex="1" parent="1">
          <mxGeometry x="641.5" y="197.5" width="9" height="50" as="geometry" />
        </mxCell>
        <mxCell id="96s5dku--IcyRKQgOa-p-363" value="" style="verticalLabelPosition=bottom;dashed=0;shadow=0;html=1;align=center;verticalAlign=top;shape=mxgraph.cabinets.din_rail;" vertex="1" parent="1">
          <mxGeometry x="615" y="299" width="216" height="25" as="geometry" />
        </mxCell>
        <mxCell id="96s5dku--IcyRKQgOa-p-364" value="" style="verticalLabelPosition=bottom;dashed=0;shadow=0;html=1;align=center;verticalAlign=top;shape=mxgraph.cabinets.din_rail;" vertex="1" parent="1">
          <mxGeometry x="615" y="378" width="216" height="25" as="geometry" />
        </mxCell>
        <mxCell id="96s5dku--IcyRKQgOa-p-365" value="" style="verticalLabelPosition=bottom;dashed=0;shadow=0;html=1;align=center;verticalAlign=top;shape=mxgraph.cabinets.din_rail;" vertex="1" parent="1">
          <mxGeometry x="615.5" y="460" width="216" height="25" as="geometry" />
        </mxCell>
        <mxCell id="96s5dku--IcyRKQgOa-p-366" value="" style="verticalLabelPosition=bottom;dashed=0;shadow=0;html=1;align=center;verticalAlign=top;shape=mxgraph.cabinets.residual_current_device_4p;" vertex="1" parent="1">
          <mxGeometry x="724" y="286.5" width="36" height="50" as="geometry" />
        </mxCell>
        <mxCell id="96s5dku--IcyRKQgOa-p-367" value="" style="verticalLabelPosition=bottom;dashed=0;shadow=0;html=1;align=center;verticalAlign=top;shape=mxgraph.cabinets.residual_current_device_4p;" vertex="1" parent="1">
          <mxGeometry x="688" y="286.5" width="36" height="50" as="geometry" />
        </mxCell>
        <mxCell id="96s5dku--IcyRKQgOa-p-368" value="" style="verticalLabelPosition=bottom;dashed=0;shadow=0;html=1;align=center;verticalAlign=top;shape=mxgraph.cabinets.residual_current_device_4p;" vertex="1" parent="1">
          <mxGeometry x="759" y="286.5" width="36" height="50" as="geometry" />
        </mxCell>
        <mxCell id="96s5dku--IcyRKQgOa-p-369" value="" style="verticalLabelPosition=bottom;dashed=0;shadow=0;html=1;align=center;verticalAlign=top;shape=mxgraph.cabinets.residual_current_device_4p;" vertex="1" parent="1">
          <mxGeometry x="795.25" y="286.5" width="36" height="50" as="geometry" />
        </mxCell>
        <mxCell id="96s5dku--IcyRKQgOa-p-370" value="" style="verticalLabelPosition=bottom;dashed=0;shadow=0;html=1;align=center;verticalAlign=top;shape=mxgraph.cabinets.cb_3p;fillColor=#f8cecc;strokeColor=#b85450;" vertex="1" parent="1">
          <mxGeometry x="615.5" y="286" width="27" height="50" as="geometry" />
        </mxCell>
        <mxCell id="96s5dku--IcyRKQgOa-p-372" value="" style="verticalLabelPosition=bottom;dashed=0;shadow=0;html=1;align=center;verticalAlign=top;shape=mxgraph.cabinets.cb_4p;fillColor=#d80073;strokeColor=#A50040;fontColor=#ffffff;" vertex="1" parent="1">
          <mxGeometry x="615.5" y="365.5" width="36" height="50" as="geometry" />
        </mxCell>
        <mxCell id="96s5dku--IcyRKQgOa-p-373" value="" style="verticalLabelPosition=bottom;dashed=0;shadow=0;html=1;align=center;verticalAlign=top;shape=mxgraph.cabinets.terminal_4_6mm2_x10;fillColor=#1ba1e2;fontColor=#ffffff;strokeColor=#006EAF;" vertex="1" parent="1">
          <mxGeometry x="615.5" y="127.5" width="30.25" height="30" as="geometry" />
        </mxCell>
        <mxCell id="96s5dku--IcyRKQgOa-p-374" value="" style="verticalLabelPosition=bottom;dashed=0;shadow=0;html=1;align=center;verticalAlign=top;shape=mxgraph.cabinets.cb_1p;hachureGap=4;pointerEvents=0;fontFamily=Architects Daughter;fontSource=https%3A%2F%2Ffonts.googleapis.com%2Fcss%3Ffamily%3DArchitects%2BDaughter;fontSize=20;" vertex="1" parent="1">
          <mxGeometry x="651" y="197.5" width="9" height="50" as="geometry" />
        </mxCell>
        <mxCell id="96s5dku--IcyRKQgOa-p-375" value="" style="verticalLabelPosition=bottom;dashed=0;shadow=0;html=1;align=center;verticalAlign=top;shape=mxgraph.cabinets.cb_3p;fillColor=#fff2cc;strokeColor=#d6b656;" vertex="1" parent="1">
          <mxGeometry x="642.75" y="285.5" width="27" height="50" as="geometry" />
        </mxCell>
        <mxCell id="96s5dku--IcyRKQgOa-p-376" value="" style="verticalLabelPosition=bottom;dashed=0;shadow=0;html=1;align=center;verticalAlign=top;shape=mxgraph.cabinets.cb_3p;fillColor=#d5e8d4;strokeColor=#82b366;" vertex="1" parent="1">
          <mxGeometry x="804.5" y="197.5" width="27" height="50" as="geometry" />
        </mxCell>
        <mxCell id="96s5dku--IcyRKQgOa-p-377" value="" style="verticalLabelPosition=bottom;dashed=0;shadow=0;html=1;align=center;verticalAlign=top;shape=mxgraph.cabinets.cb_3p;fillColor=#dae8fc;strokeColor=#6c8ebf;" vertex="1" parent="1">
          <mxGeometry x="652" y="365.5" width="27" height="50" as="geometry" />
        </mxCell>
        <mxCell id="96s5dku--IcyRKQgOa-p-381" value="" style="verticalLabelPosition=bottom;dashed=0;shadow=0;html=1;align=center;verticalAlign=top;shape=mxgraph.cabinets.cb_1p;hachureGap=4;pointerEvents=0;fontFamily=Architects Daughter;fontSource=https%3A%2F%2Ffonts.googleapis.com%2Fcss%3Ffamily%3DArchitects%2BDaughter;fontSize=20;" vertex="1" parent="1">
          <mxGeometry x="759" y="197.5" width="9" height="50" as="geometry" />
        </mxCell>
        <mxCell id="96s5dku--IcyRKQgOa-p-382" value="" style="verticalLabelPosition=bottom;dashed=0;shadow=0;html=1;align=center;verticalAlign=top;shape=mxgraph.cabinets.cb_1p;hachureGap=4;pointerEvents=0;fontFamily=Architects Daughter;fontSource=https%3A%2F%2Ffonts.googleapis.com%2Fcss%3Ffamily%3DArchitects%2BDaughter;fontSize=20;" vertex="1" parent="1">
          <mxGeometry x="768" y="197.5" width="9" height="50" as="geometry" />
        </mxCell>
        <mxCell id="96s5dku--IcyRKQgOa-p-384" value="Blaszak" style="text;strokeColor=#82b366;fillColor=#d5e8d4;align=left;verticalAlign=middle;spacingLeft=4;spacingRight=4;overflow=hidden;points=[[0,0.5],[1,0.5]];portConstraint=eastwest;rotatable=0;" vertex="1" parent="1">
          <mxGeometry x="876" y="157.5" width="80" height="30" as="geometry" />
        </mxCell>
        <mxCell id="96s5dku--IcyRKQgOa-p-385" value="Siła" style="text;strokeColor=#d6b656;fillColor=#fff2cc;align=left;verticalAlign=middle;spacingLeft=4;spacingRight=4;overflow=hidden;points=[[0,0.5],[1,0.5]];portConstraint=eastwest;rotatable=0;" vertex="1" parent="1">
          <mxGeometry x="876" y="187.5" width="80" height="30" as="geometry" />
        </mxCell>
        <mxCell id="96s5dku--IcyRKQgOa-p-386" value="Indukcja" style="text;strokeColor=#b85450;fillColor=#f8cecc;align=left;verticalAlign=middle;spacingLeft=4;spacingRight=4;overflow=hidden;points=[[0,0.5],[1,0.5]];portConstraint=eastwest;rotatable=0;" vertex="1" parent="1">
          <mxGeometry x="876" y="217.5" width="80" height="30" as="geometry" />
        </mxCell>
        <mxCell id="96s5dku--IcyRKQgOa-p-387" value="Róznicówka do bramy" style="text;strokeColor=#2D7600;fillColor=#60a917;align=left;verticalAlign=middle;spacingLeft=4;spacingRight=4;overflow=hidden;points=[[0,0.5],[1,0.5]];portConstraint=eastwest;rotatable=0;fontColor=#ffffff;" vertex="1" parent="1">
          <mxGeometry x="876" y="272.5" width="139" height="30" as="geometry" />
        </mxCell>
        <mxCell id="96s5dku--IcyRKQgOa-p-388" value="Kontrola faz i zab. tego" style="text;strokeColor=#666666;fillColor=#f5f5f5;align=left;verticalAlign=middle;spacingLeft=4;spacingRight=4;overflow=hidden;points=[[0,0.5],[1,0.5]];portConstraint=eastwest;rotatable=0;fontColor=#333333;" vertex="1" parent="1">
          <mxGeometry x="876" y="247.5" width="154" height="25" as="geometry" />
        </mxCell>
        <mxCell id="96s5dku--IcyRKQgOa-p-389" value="S-ki na obwody i różnicówki" style="text;align=left;verticalAlign=middle;spacingLeft=4;spacingRight=4;overflow=hidden;points=[[0,0.5],[1,0.5]];portConstraint=eastwest;rotatable=0;" vertex="1" parent="1">
          <mxGeometry x="876" y="125" width="169" height="30" as="geometry" />
        </mxCell>
        <mxCell id="96s5dku--IcyRKQgOa-p-390" value="Złączki: łącznik oprawa/roleta" style="text;align=left;verticalAlign=middle;spacingLeft=4;spacingRight=4;overflow=hidden;points=[[0,0.5],[1,0.5]];portConstraint=eastwest;rotatable=0;fillColor=#1ba1e2;fontColor=#ffffff;strokeColor=#006EAF;" vertex="1" parent="1">
          <mxGeometry x="876" y="95" width="169" height="30" as="geometry" />
        </mxCell>
        <mxCell id="96s5dku--IcyRKQgOa-p-394" value="Wersja opymistyczna - realne wymiary i ilości" style="text;align=left;verticalAlign=middle;spacingLeft=4;spacingRight=4;overflow=hidden;points=[[0,0.5],[1,0.5]];portConstraint=eastwest;rotatable=0;" vertex="1" parent="1">
          <mxGeometry x="625.25" width="254.75" height="30" as="geometry" />
        </mxCell>
        <mxCell id="96s5dku--IcyRKQgOa-p-395" value="" style="verticalLabelPosition=bottom;dashed=0;shadow=0;html=1;align=center;verticalAlign=top;shape=mxgraph.cabinets.terminal_4_6mm2_x10;fillColor=#1ba1e2;fontColor=#ffffff;strokeColor=#006EAF;" vertex="1" parent="1">
          <mxGeometry x="646.37" y="127.5" width="30.25" height="30" as="geometry" />
        </mxCell>
        <mxCell id="96s5dku--IcyRKQgOa-p-396" value="" style="verticalLabelPosition=bottom;dashed=0;shadow=0;html=1;align=center;verticalAlign=top;shape=mxgraph.cabinets.terminal_4_6mm2_x10;fillColor=#1ba1e2;fontColor=#ffffff;strokeColor=#006EAF;" vertex="1" parent="1">
          <mxGeometry x="677.25" y="127.5" width="30.25" height="30" as="geometry" />
        </mxCell>
        <mxCell id="96s5dku--IcyRKQgOa-p-397" value="" style="verticalLabelPosition=bottom;dashed=0;shadow=0;html=1;align=center;verticalAlign=top;shape=mxgraph.cabinets.terminal_4_6mm2_x10;fillColor=#1ba1e2;fontColor=#ffffff;strokeColor=#006EAF;" vertex="1" parent="1">
          <mxGeometry x="708.37" y="127.5" width="30.25" height="30" as="geometry" />
        </mxCell>
        <mxCell id="96s5dku--IcyRKQgOa-p-398" value="" style="verticalLabelPosition=bottom;dashed=0;shadow=0;html=1;align=center;verticalAlign=top;shape=mxgraph.cabinets.terminal_4_6mm2_x10;fillColor=#1ba1e2;fontColor=#ffffff;strokeColor=#006EAF;" vertex="1" parent="1">
          <mxGeometry x="738.63" y="127.5" width="30.25" height="30" as="geometry" />
        </mxCell>
        <mxCell id="96s5dku--IcyRKQgOa-p-399" value="" style="verticalLabelPosition=bottom;dashed=0;shadow=0;html=1;align=center;verticalAlign=top;shape=mxgraph.cabinets.terminal_4_6mm2_x10;fillColor=#1ba1e2;fontColor=#ffffff;strokeColor=#006EAF;" vertex="1" parent="1">
          <mxGeometry x="768.88" y="127.5" width="30.25" height="30" as="geometry" />
        </mxCell>
        <mxCell id="96s5dku--IcyRKQgOa-p-400" value="" style="verticalLabelPosition=bottom;dashed=0;shadow=0;html=1;align=center;verticalAlign=top;shape=mxgraph.cabinets.surge_protection_1p;fillColor=#f5f5f5;fontColor=#333333;strokeColor=#666666;" vertex="1" parent="1">
          <mxGeometry x="670" y="286" width="9" height="50" as="geometry" />
        </mxCell>
        <mxCell id="96s5dku--IcyRKQgOa-p-401" value="" style="verticalLabelPosition=bottom;dashed=0;shadow=0;html=1;align=center;verticalAlign=top;shape=mxgraph.cabinets.cb_1p;hachureGap=4;pointerEvents=0;fontFamily=Architects Daughter;fontSource=https%3A%2F%2Ffonts.googleapis.com%2Fcss%3Ffamily%3DArchitects%2BDaughter;fontSize=20;fillColor=#f5f5f5;fontColor=#333333;strokeColor=#666666;" vertex="1" parent="1">
          <mxGeometry x="679" y="285.5" width="9" height="50" as="geometry" />
        </mxCell>
        <mxCell id="96s5dku--IcyRKQgOa-p-402" value="Rozłącznik z tab. licznik." style="text;strokeColor=#6c8ebf;fillColor=#dae8fc;align=left;verticalAlign=middle;spacingLeft=4;spacingRight=4;overflow=hidden;points=[[0,0.5],[1,0.5]];portConstraint=eastwest;rotatable=0;" vertex="1" parent="1">
          <mxGeometry x="876" y="332.5" width="154" height="30" as="geometry" />
        </mxCell>
        <mxCell id="96s5dku--IcyRKQgOa-p-403" value="Przepięciówka" style="text;strokeColor=#A50040;fillColor=#d80073;align=left;verticalAlign=middle;spacingLeft=4;spacingRight=4;overflow=hidden;points=[[0,0.5],[1,0.5]];portConstraint=eastwest;rotatable=0;fontColor=#ffffff;" vertex="1" parent="1">
          <mxGeometry x="876" y="302.5" width="154" height="30" as="geometry" />
        </mxCell>
      </root>
    </mxGraphModel>
  </diagram>
</mxfile>
